<svg width="14" height="17" viewBox="0 0 14 17" fill="none" xmlns="http://www.w3.org/2000/svg">
<path d="M12.3334 6.97657C12.0873 6.97657 11.8565 7.04361 11.6582 7.1604C11.5837 6.49534 11.0179 5.977 10.3334 5.977C10.0078 5.977 9.70869 6.09479 9.47628 6.29099C9.24287 5.90347 8.81806 5.6438 8.33337 5.6438C8.09087 5.6438 7.863 5.70886 7.66672 5.82275V2.3119C7.66669 1.57684 7.06872 0.979126 6.33337 0.979126C5.59803 0.979126 5.00003 1.57684 5.00003 2.3119V11.2293C5.00003 11.3972 4.88934 11.4834 4.84181 11.5127C4.79428 11.542 4.66634 11.6022 4.51759 11.5274L2.37697 10.4575C2.18197 10.3599 1.96356 10.3085 1.74547 10.3085C0.966811 10.3085 0.333374 10.9417 0.333374 11.72V11.9744C0.333374 12.0668 0.37178 12.155 0.439155 12.2182L4.2865 15.8074C5.09181 16.5584 6.14197 16.9723 7.24319 16.9723H9.33334C11.7227 16.9723 13.6667 15.0291 13.6667 12.6408V8.30935C13.6667 7.57429 13.0687 6.97657 12.3334 6.97657ZM13 12.6408C13 14.6618 11.3552 16.3059 9.33337 16.3059H7.24322C6.31156 16.3059 5.4229 15.9558 4.74159 15.32L1.00003 11.8297V11.72C1.00003 11.309 1.33434 10.9749 1.74547 10.9749C1.86037 10.9749 1.97594 11.0022 2.07881 11.0536L4.21944 12.1235C4.53162 12.28 4.89553 12.2627 5.19241 12.0799C5.48928 11.8964 5.66669 11.5785 5.66669 11.2293V2.3119C5.66669 1.94456 5.96584 1.64553 6.33334 1.64553C6.70084 1.64553 7 1.94456 7 2.3119V7.30977C7 7.49395 7.14909 7.64298 7.33334 7.64298C7.51759 7.64298 7.66669 7.49395 7.66669 7.30977V6.97657C7.66669 6.60923 7.96584 6.3102 8.33334 6.3102C8.70084 6.3102 9 6.60923 9 6.97657V7.30977C9 7.31043 9 7.31109 9 7.31174V7.31205C9.00131 7.49491 9.15006 7.64298 9.33334 7.64298C9.51759 7.64298 9.66669 7.49395 9.66669 7.30977V7.30456C9.66928 6.93981 9.96812 6.64337 10.3333 6.64337C10.7008 6.64337 11 6.9424 11 7.30974V8.30932C11 8.49349 11.1491 8.64252 11.3333 8.64252C11.5176 8.64252 11.6667 8.49349 11.6667 8.30932C11.6667 7.94197 11.9658 7.64294 12.3333 7.64294C12.7008 7.64294 13 7.94197 13 8.30935V12.6408Z" fill="black"/>
</svg>
